{"accessors":[{"bufferView":0,"byteOffset":0,"componentType":5126,"count":170194,"max":[0.1404579620361328,0.19704432678222656,-0.0006412796378135682],"min":[0.0009369747042655946,0.001485263705253601,-0.05029058074951172],"type":"VEC3"},{"bufferView":1,"byteOffset":0,"componentType":5125,"count":626148,"type":"SCALAR"}],"asset":{"generator":"Open CASCADE Technology 7.6 [dev.opencascade.org]","version":"2.0","extras":{"Comments":"solid ASSEMBLAGEEEEEEEEE                                                        L/\u0003"}},"bufferViews":[{"buffer":0,"byteLength":2042328,"byteOffset":0,"byteStride":12,"target":34962},{"buffer":0,"byteLength":2504592,"byteOffset":2042328,"target":34963}],"buffers":[{"byteLength":4546920,"uri":"ASSEMBLAGE.bin"}],"materials":[{"name":"mat_0","pbrMetallicRoughness":{"baseColorFactor":[0.2158605009317398,0.2158605009317398,0.2158605009317398,1.0],"roughnessFactor":0.2121320366859436},"doubleSided":true}],"meshes":[{"name":"ASSEMBLAGEEEEEEEEE.STL","primitives":[{"attributes":{"POSITION":0},"indices":1,"material":0,"mode":4}]}],"nodes":[{"mesh":0,"name":"ASSEMBLAGEEEEEEEEE.STL"}],"scene":0,"scenes":[{"nodes":[0]}]}