{"accessors":[{"bufferView":0,"byteOffset":0,"componentType":5126,"count":17653,"max":[0.1060604476928711,0.09245011138916017,-0.00005245593935251236],"min":[0.0005440433025360108,0.07374082946777344,-0.008702455520629883],"type":"VEC3"},{"bufferView":1,"byteOffset":0,"componentType":5123,"count":94362,"type":"SCALAR"}],"asset":{"generator":"Open CASCADE Technology 7.6 [dev.opencascade.org]","version":"2.0","extras":{"Comments":"solid assemblage cremaillere                                                    Þz"}},"bufferViews":[{"buffer":0,"byteLength":211836,"byteOffset":0,"byteStride":12,"target":34962},{"buffer":0,"byteLength":188724,"byteOffset":211836,"target":34963}],"buffers":[{"byteLength":400560,"uri":"AssemblageCremaillere.bin"}],"meshes":[{"name":"assemblage cremaillere.STL","primitives":[{"attributes":{"POSITION":0},"indices":1,"mode":4}]}],"nodes":[{"mesh":0,"name":"assemblage cremaillere.STL"}],"scene":0,"scenes":[{"nodes":[0]}]}