{"accessors":[{"bufferView":0,"byteOffset":0,"componentType":5126,"count":3555,"max":[0.08281999969482422,0.17,0.0],"min":[0.0,0.0,-0.023],"type":"VEC3"},{"bufferView":1,"byteOffset":0,"componentType":5123,"count":10290,"type":"SCALAR"}],"asset":{"generator":"Open CASCADE Technology 7.6 [dev.opencascade.org]","version":"2.0","extras":{"Comments":"solid Chassis                                                                   f"}},"bufferViews":[{"buffer":0,"byteLength":42660,"byteOffset":0,"byteStride":12,"target":34962},{"buffer":0,"byteLength":20580,"byteOffset":42660,"target":34963}],"buffers":[{"byteLength":63240,"uri":"chassis3d.bin"}],"meshes":[{"name":"Chassis.STL","primitives":[{"attributes":{"POSITION":0},"indices":1,"mode":4}]}],"nodes":[{"mesh":0,"name":"Chassis.STL"}],"scene":0,"scenes":[{"nodes":[0]}]}