{"accessors":[{"bufferView":0,"byteOffset":0,"componentType":5126,"count":8929,"max":[0.043500000000000007,0.043500000000000007,0.0],"min":[0.0,0.0,-0.026000000000000004],"type":"VEC3"},{"bufferView":1,"byteOffset":0,"componentType":5123,"count":30642,"type":"SCALAR"}],"asset":{"generator":"Open CASCADE Technology 7.6 [dev.opencascade.org]","version":"2.0","extras":{"Comments":"solid Driver                                                                    æ'"}},"bufferViews":[{"buffer":0,"byteLength":107148,"byteOffset":0,"byteStride":12,"target":34962},{"buffer":0,"byteLength":61284,"byteOffset":107148,"target":34963}],"buffers":[{"byteLength":168432,"uri":"Driver.bin"}],"meshes":[{"name":"Driver.STL","primitives":[{"attributes":{"POSITION":0},"indices":1,"mode":4}]}],"nodes":[{"mesh":0,"name":"Driver.STL"}],"scene":0,"scenes":[{"nodes":[0]}]}