{"accessors":[{"bufferView":0,"byteOffset":0,"componentType":5126,"count":115353,"max":[0.028,0.05338000106811523,0.0],"min":[0.0,0.0,-0.013140000343322755],"type":"VEC3"},{"bufferView":1,"byteOffset":0,"componentType":5125,"count":421914,"type":"SCALAR"}],"asset":{"generator":"Open CASCADE Technology 7.6 [dev.opencascade.org]","version":"2.0","extras":{"Comments":"solid ESP32                                                                     ^%\u0002"}},"bufferViews":[{"buffer":0,"byteLength":1384236,"byteOffset":0,"byteStride":12,"target":34962},{"buffer":0,"byteLength":1687656,"byteOffset":1384236,"target":34963}],"buffers":[{"byteLength":3071892,"uri":"ESP32.bin"}],"meshes":[{"name":"ESP32.STL","primitives":[{"attributes":{"POSITION":0},"indices":1,"mode":4}]}],"nodes":[{"mesh":0,"name":"ESP32.STL"}],"scene":0,"scenes":[{"nodes":[0]}]}