{"accessors":[{"bufferView":0,"byteOffset":0,"componentType":5126,"count":3347,"max":[0.03527000045776367,0.012,-0.000002400018274784088],"min":[0.0,0.0,-0.010002399444580078],"type":"VEC3"},{"bufferView":1,"byteOffset":0,"componentType":5123,"count":12294,"type":"SCALAR"}],"asset":{"generator":"Open CASCADE Technology 7.6 [dev.opencascade.org]","version":"2.0","extras":{"Comments":"solid moteur RC                                                                 \u0002\u0010"}},"bufferViews":[{"buffer":0,"byteLength":40164,"byteOffset":0,"byteStride":12,"target":34962},{"buffer":0,"byteLength":24588,"byteOffset":40164,"target":34963}],"buffers":[{"byteLength":64752,"uri":"moteur RC.bin"}],"meshes":[{"name":"moteur RC.STL","primitives":[{"attributes":{"POSITION":0},"indices":1,"mode":4}]}],"nodes":[{"mesh":0,"name":"moteur RC.STL"}],"scene":0,"scenes":[{"nodes":[0]}]}