{"accessors":[{"bufferView":0,"byteOffset":0,"componentType":5126,"count":833,"max":[0.031899999618530277,0.011800000190734864,0.0],"min":[0.0,0.0,-0.029899999618530277],"type":"VEC3"},{"bufferView":1,"byteOffset":0,"componentType":5123,"count":2382,"type":"SCALAR"}],"asset":{"generator":"Open CASCADE Technology 7.6 [dev.opencascade.org]","version":"2.0","extras":{"Comments":"solid Servo                                                                     \u001A\u0003"}},"bufferViews":[{"buffer":0,"byteLength":9996,"byteOffset":0,"byteStride":12,"target":34962},{"buffer":0,"byteLength":4764,"byteOffset":9996,"target":34963}],"buffers":[{"byteLength":14760,"uri":"Servo.bin"}],"meshes":[{"name":"Servo.STL","primitives":[{"attributes":{"POSITION":0},"indices":1,"mode":4}]}],"nodes":[{"mesh":0,"name":"Servo.STL"}],"scene":0,"scenes":[{"nodes":[0]}]}